<svg xmlns="http://www.w3.org/2000/svg" width="23.165" height="23.292" viewBox="0 0 23.165 23.292">
  <g id="Group_1975" data-name="Group 1975" transform="translate(-1354.374 -91.494)">
    <path id="Path_1029" data-name="Path 1029" d="M1498.357,160.853a11.73,11.73,0,0,0-5.484-8.635,1.165,1.165,0,1,0-1.22,1.985,9.381,9.381,0,0,1,4.39,6.9,1.165,1.165,0,0,0,1.156,1.038,1.271,1.271,0,0,0,.13-.007A1.164,1.164,0,0,0,1498.357,160.853Z" transform="translate(-120.825 -47.361)" fill="#3e4763"/>
    <path id="Path_1030" data-name="Path 1030" d="M1491.774,144.188a6.987,6.987,0,1,0-13.974,0,6.914,6.914,0,0,0,.39,2.3,1.164,1.164,0,1,0,2.2-.766,4.66,4.66,0,1,1,4.4,3.12,11.627,11.627,0,0,0-11.575,10.353,1.165,1.165,0,0,0,1.031,1.287,1.289,1.289,0,0,0,.13.007,1.163,1.163,0,0,0,1.156-1.038,9.3,9.3,0,0,1,9.259-8.28A7,7,0,0,0,1491.774,144.188Z" transform="translate(-118.83 -45.707)" fill="#3e4763"/>
  </g>
</svg>
