<svg xmlns="http://www.w3.org/2000/svg" width="26.177" height="26.649" viewBox="0 0 26.177 26.649">
  <g id="Group_1974" data-name="Group 1974" transform="translate(-1410.777 -88.546)">
    <path id="Path_1031" data-name="Path 1031" d="M1557.907,147.145h-13.3l-2-5.835,17.749-.038Zm4.781-7.391a1.021,1.021,0,0,0-.836-.426h0l-19.908.044-1.655-4.823a1.01,1.01,0,0,0-.962-.667H1537.7a.971.971,0,1,0,0,1.941h.9l1.648,4.8.016.043,2.523,7.356-3.141,5.617a.932.932,0,0,0,.024.956,1.022,1.022,0,0,0,.868.473h17.779a.97.97,0,1,0,0-1.939h-16.091l2.259-4.044h14.111a1.007,1.007,0,0,0,.937-.61l3.259-7.818A.944.944,0,0,0,1562.688,139.754Z" transform="translate(-125.908 -45.336)" fill="#3e4763"/>
    <path id="Path_1032" data-name="Path 1032" d="M1543.668,160.839a1.349,1.349,0,1,0,1.349,1.349A1.349,1.349,0,0,0,1543.668,160.839Z" transform="translate(-126.536 -48.342)" fill="#3e4763"/>
    <path id="Path_1033" data-name="Path 1033" d="M1557.515,160.839a1.349,1.349,0,1,0,1.349,1.349A1.349,1.349,0,0,0,1557.515,160.839Z" transform="translate(-128.08 -48.342)" fill="#3e4763"/>
  </g>
</svg>
