<svg xmlns="http://www.w3.org/2000/svg" width="113.517" height="96.951" viewBox="0 0 113.517 96.951">
  <path id="Path_2138" data-name="Path 2138" d="M1430.735,143.351c9.161,0,17.8,5.048,23.7,13.865a3.267,3.267,0,0,0,5.1,0c5.906-8.817,14.549-13.876,23.747-13.876,11.8,0,24.346,8.895,24.346,25.367,0,17.734-15.544,31.044-30.116,42.117l-6.857,5.189c-7.126,5.4-10.588,8.029-13.68,10.844-2.26-2.016-4.775-3.928-8.447-6.72-2.962-2.26-6.787-5.167-12.046-9.324-12.718-10-30.126-23.7-30.126-41.9C1406.353,152.305,1418.919,143.351,1430.735,143.351Zm52.528-6.15c-10.008,0-19.309,4.667-26.28,13.159-6.975-8.48-16.266-13.137-26.248-13.137-14.793,0-30.511,11.1-30.511,31.691,0,21.173,18.776,35.955,32.49,46.751,5.188,4.1,9,7,12.1,9.36a94.683,94.683,0,0,1,10.008,8.236,3.08,3.08,0,0,0,4.334,0c3.495-3.488,6.683-5.9,15.207-12.36l6.857-5.2c11.354-8.654,32.516-24.731,32.516-46.995C1513.741,148.241,1498.045,137.2,1483.263,137.2Z" transform="translate(-1400.225 -137.201)" fill="#3e4763"/>
</svg>
