<svg width="27" height="17" viewBox="0 0 27 17" fill="none" xmlns="http://www.w3.org/2000/svg">
<path d="M9 15.375C9.59674 15.375 10.169 15.1379 10.591 14.716C11.0129 14.294 11.25 13.7217 11.25 13.125C11.25 12.5283 11.0129 11.956 10.591 11.534C10.169 11.1121 9.59674 10.875 9 10.875C8.40326 10.875 7.83097 11.1121 7.40901 11.534C6.98705 11.956 6.75 12.5283 6.75 13.125C6.75 13.7217 6.98705 14.294 7.40901 14.716C7.83097 15.1379 8.40326 15.375 9 15.375V15.375ZM20.25 15.375C20.8467 15.375 21.419 15.1379 21.841 14.716C22.2629 14.294 22.5 13.7217 22.5 13.125C22.5 12.5283 22.2629 11.956 21.841 11.534C21.419 11.1121 20.8467 10.875 20.25 10.875C19.6533 10.875 19.081 11.1121 18.659 11.534C18.2371 11.956 18 12.5283 18 13.125C18 13.7217 18.2371 14.294 18.659 14.716C19.081 15.1379 19.6533 15.375 20.25 15.375V15.375Z" stroke="#F9B81B" stroke-width="1.5" stroke-miterlimit="1.5" stroke-linecap="round" stroke-linejoin="round"/>
<path d="M11.3062 13.125H16.875V1.425C16.875 1.24598 16.8039 1.07429 16.6773 0.947703C16.5507 0.821116 16.379 0.75 16.2 0.75H1.125M6.35625 13.125H4.05C3.96136 13.125 3.87358 13.1075 3.79169 13.0736C3.70979 13.0397 3.63538 12.99 3.5727 12.9273C3.51002 12.8646 3.4603 12.7902 3.42638 12.7083C3.39246 12.6264 3.375 12.5386 3.375 12.45V6.9375" stroke="#F9B81B" stroke-width="1.5" stroke-linecap="round"/>
<path d="M2.25 4.125H6.75" stroke="#F9B81B" stroke-width="1.5" stroke-linecap="round" stroke-linejoin="round"/>
<path d="M16.875 4.125H23.1863C23.3167 4.12503 23.4444 4.16288 23.5538 4.23396C23.6632 4.30504 23.7497 4.4063 23.8028 4.5255L25.8165 9.057C25.8549 9.14304 25.8748 9.23617 25.875 9.33038V12.45C25.875 12.5386 25.8575 12.6264 25.8236 12.7083C25.7897 12.7902 25.74 12.8646 25.6773 12.9273C25.6146 12.99 25.5402 13.0397 25.4583 13.0736C25.3764 13.1075 25.2886 13.125 25.2 13.125H23.0625M16.875 13.125H18" stroke="#F9B81B" stroke-width="1.5" stroke-linecap="round"/>
</svg>
