<svg xmlns="http://www.w3.org/2000/svg" width="517.412" height="294.814" viewBox="0 0 517.412 294.814">
  <g id="Group_2391" data-name="Group 2391" transform="translate(-190.588 -421.238)">
    <g id="Group_2337" data-name="Group 2337" transform="translate(190.588 421.238)">
      <g id="Group_2282" data-name="Group 2282" transform="translate(0 0)">
        <g id="freepik--background-complete--inject-52" transform="translate(0)">
          <path id="Path_2279" data-name="Path 2279" d="M440.946,185.249c.537-3.951-5.033-7.2-9.216-7.539-2-.16-4.074.145-5.963-.516-4.1-1.453-5.738-6.718-9.739-8.41-2.985-1.256-6.428-.138-9.325,1.322s-5.767,3.3-9.006,3.5c-2.818.182-5.876-.864-8.338.516-1.837,1.024-2.8,3.138-4.488,4.358A11.053,11.053,0,0,1,379,180.071c-2.055.138-4.183.138-6.05.995s-3.421,2.832-3.029,4.851Z" transform="translate(65.8 -165.496)" fill="#f9e4e4"/>
          <path id="Path_2280" data-name="Path 2280" d="M195.727,97.375c.428-3.108-3.958-5.665-7.263-5.934-1.569-.123-3.2.116-4.692-.4-3.225-1.126-4.51-5.295-7.655-6.624-2.353-.988-5.084-.109-7.343,1.039s-4.532,2.593-7.081,2.76c-2.179.138-4.626-.683-6.536.4-1.453.806-2.179,2.477-3.53,3.457a8.376,8.376,0,0,1-4.619,1.249,13.152,13.152,0,0,0-4.764.777,3.76,3.76,0,0,0-2.382,3.82Z" transform="translate(145.177 -66.774)" fill="#f9e4e4"/>
          <path id="Path_2281" data-name="Path 2281" d="M135.112,65.623c.726-5.193-6.624-9.442-12.136-9.914-2.622-.211-5.353.189-7.844-.683-5.4-1.881-7.553-8.846-12.819-11.068-3.936-1.663-8.468-.182-12.281,1.736s-7.59,4.336-11.853,4.634c-3.7.24-7.735-1.14-10.974.675-2.418,1.351-3.689,4.132-5.912,5.81s-5.026,1.954-7.728,2.1-5.505.174-7.989,1.3-4.5,3.733-3.987,6.391Z" transform="translate(-41.511 -43.237)" fill="#f9e4e4"/>
        </g>
        <g id="freepik--Floor--inject-52" transform="translate(5.468 294.102)">
          <path id="Path_2417" data-name="Path 2417" d="M533.394,480c0,.1-114.627.189-255.967.189S21.45,480.1,21.45,480s114.627-.189,255.978-.189S533.394,479.9,533.394,480Z" transform="translate(-21.45 -479.81)" fill="#263238"/>
        </g>
      </g>
      <g id="Group_2283" data-name="Group 2283" transform="translate(29.719 175.815)">
        <path id="Path_2254" data-name="Path 2254" d="M287,418.4c0,2.818-31.324,5.084-69.969,5.084s-69.962-2.28-69.962-5.084,31.324-5.084,69.962-5.084S287,415.586,287,418.4Z" transform="translate(-117.819 -304.583)" fill="#d62828"/>
        <path id="Path_2255" data-name="Path 2255" d="M287,418.4c0,2.818-31.324,5.084-69.969,5.084s-69.962-2.28-69.962-5.084,31.324-5.084,69.962-5.084S287,415.586,287,418.4Z" transform="translate(-117.82 -304.583)" fill="#fff" opacity="0.4"/>
        <circle id="Ellipse_1038" data-name="Ellipse 1038" cx="5.65" cy="5.65" r="5.65" transform="translate(127.356 101.678)" fill="#263238" stroke="#263238" stroke-linecap="round" stroke-linejoin="round" stroke-width="0.75"/>
        <path id="Path_2275" data-name="Path 2275" d="M285,404.654s1.2,5.135,1.881,6.166a1.863,1.863,0,0,0,3.428-.69c.523-2.23-1.881-5.81-1.881-5.81Z" transform="translate(-155.574 -302.119)" fill="#fff" stroke="#263238" stroke-linecap="round" stroke-linejoin="round" stroke-width="0.75"/>
        <circle id="Ellipse_1039" data-name="Ellipse 1039" cx="5.65" cy="5.65" r="5.65" transform="translate(54.219 101.678)" fill="#263238" stroke="#263238" stroke-linecap="round" stroke-linejoin="round" stroke-width="0.75"/>
        <path id="Path_2276" data-name="Path 2276" d="M192.151,404.654s-1.2,5.135-1.881,6.166a1.863,1.863,0,0,1-3.428-.69c-.523-2.23,1.888-5.81,1.888-5.81Z" transform="translate(-128.686 -302.119)" fill="#fff" stroke="#263238" stroke-linecap="round" stroke-linejoin="round" stroke-width="0.75"/>
        <path id="Path_2277" data-name="Path 2277" d="M265.821,319.441a1.155,1.155,0,0,0-.058-1.031L264.6,298.641a1.213,1.213,0,0,0-.98-1.118l-90.392-17.569-1.453-7.669a4.837,4.837,0,0,0-4.7-3.929l-16.7-.145h0a1.213,1.213,0,0,0,0,2.426l16.7.145a2.4,2.4,0,0,1,2.331,1.954l8.519,45.232v.087a1.155,1.155,0,0,0,.123.545l5.44,28.855a1.2,1.2,0,0,0,0,.842,13.541,13.541,0,0,1-.363,8.105,23.423,23.423,0,0,1-5.338,8.577,1.169,1.169,0,0,0-.334.69h-6.362a1.213,1.213,0,1,0,0,2.426h82.7a1.213,1.213,0,0,0,0-2.426H216.522c-.726-2.23-1.576-7.19,1.256-9.7a21.788,21.788,0,0,0,6.929-11.657l41.114-5.854a1.206,1.206,0,0,0,1.039-1.271Zm-39.008,22.1-.29-2.433,6.079-.617.189,2.179Zm-8.773,1.249L217.691,340l6.42-.646.3,2.527Zm-29.726-57.434,2,12.477-7.088-.726L180.76,283.9Zm11.112,2.179,1.293,11.352-7.9-.8-1.968-12.216Zm9.442,1.838,1.322,10.466-6.994-.726L201.924,288Zm9.6,1.866,1.111,9.5-6.921-.726-1.286-10.168ZM263.3,317.778l-10.262-.109c-.283-4-.552-7.851-.777-11.148l10.437,1.053Zm-12.7-.138-7.539-.08-.821-12.049,7.575.726c.225,3.392.5,7.357.777,11.381Zm-54.347,1.823,6.82.073,2.179,19.283-5.81.588Zm.792,20.19-5.81.581-3.886-20.866,6.42.073Zm24.475-22.347-6.711-.073-1.852-14.692,6.9.726Zm.821-13.8,7.263.726,1.177,13.211-6.805-.073Zm-9.979,13.727-7.117-.08-1.779-15.55,7.016.726Zm-9.572-.123-6.936-.08-2.658-16.479,7.786.784Zm2.724,2.455,7.147.08,2.288,18.193-7.263.726Zm9.594.1,6.689.073,2.055,17.205-6.449.646Zm9.137.1,6.733.073,1.4,16.232-6.152.625Zm9.173.094,7.35.08,1.031,15.179-7,.726Zm-.2-2.419-1.126-12.971,7.691.777.835,12.274Zm8.846-14.4-.494-7.328,7.619,1.453c.058,1.01.225,3.414.443,6.609Zm-2.448-.247-7.735-.784-.726-8.316,7.945,1.532Zm-10.168-1.031-7.372-.726-1.133-9.333,7.72,1.5Zm-38.718-1.453,2.694,16.7-6.486-.073L183.709,299.6Zm-6.268,16.61-4.263-.044-3.384-17.968,4.358.443Zm.458,2.433,3.936,21.142-4.133.421-4.067-21.607Zm.254,23.967,4.133-.414.726,3.9-4.1.581Zm7.263,3.145-.726-3.806,5.723-.581.581,3.588Zm7.989-1.14-.559-3.486,5.7-.581.37,3.283Zm7.916-1.126-.363-3.188,7.263-.726.363,2.905Zm26.683-5.919,6.958-.726.123,1.816-6.9.98Zm9.376-.951,7.524-.726c.036.508.065.973.094,1.416l-7.5,1.068Zm-.167-2.426-1.01-14.9,7.546.08c.356,5.084.726,10.168.98,14.068Zm8.969-14.794,10.233.109.726,12.674L254.15,333.9c-.283-4.263-.617-9.078-.951-13.821Zm9.34-15.012-10.458-1.053c-.2-2.905-.356-5.142-.436-6.377l10.582,2.055ZM178.2,283.4l2.513,13.451-4.358-.436-2.615-13.894Zm37.97,70.761c-3.5,3.094-2.985,8.454-2.179,11.511H180.433a25.151,25.151,0,0,0,4.968-8.519,17.488,17.488,0,0,0,.821-7.379l5.04-.726a1.365,1.365,0,0,0,.182,0,1.1,1.1,0,0,0,.218,0,1.25,1.25,0,0,0,.327-.116l30.126-4.292a19.682,19.682,0,0,1-5.948,9.521Zm38.26-16.552c0-.421-.058-.864-.087-1.307l9.979-1.01.058.908Z" transform="translate(-115.746 -266.416)" fill="#fff" stroke="#263238" stroke-linecap="round" stroke-linejoin="round" stroke-width="1"/>
        <path id="Path_2278" data-name="Path 2278" d="M162.514,270.917H144.873a2.433,2.433,0,1,1,0-4.859h17.641a2.433,2.433,0,0,1,0,4.859Z" transform="translate(-120.147 -266.055)" fill="#263238" stroke="#263238" stroke-linecap="round" stroke-linejoin="round" stroke-width="1"/>
        <line id="Line_147" data-name="Line 147" x1="45.37" transform="translate(0 24.31)" fill="none" stroke="#263238" stroke-linecap="round" stroke-linejoin="round" stroke-width="1"/>
        <line id="Line_146" data-name="Line 146" x1="19.377" transform="translate(9.172 32.981)" fill="none" stroke="#263238" stroke-linecap="round" stroke-linejoin="round" stroke-width="1"/>
        <line id="Line_149" data-name="Line 149" x1="13.254" transform="translate(113.676 10.546)" fill="none" stroke="#263238" stroke-linecap="round" stroke-linejoin="round" stroke-width="1"/>
        <line id="Line_148" data-name="Line 148" x1="17.845" transform="translate(102.461 7.489)" fill="none" stroke="#263238" stroke-linecap="round" stroke-linejoin="round" stroke-width="1"/>
      </g>
    </g>
    <g id="Group_2338" data-name="Group 2338" transform="translate(573.266 664.16)">
      <path id="Path_2290" data-name="Path 2290" d="M296.751,409a11,11,0,0,1,7.924,3.355,19.363,19.363,0,0,1,4.459,7.561c1.874,5.389,1.453,11.947.269,17.532-6.108-1.692-10.24-7.778-12.143-11-3.007-5.084-5.353-16.1-.508-17.431" transform="translate(-269.044 -409)" fill="#ebebeb"/>
      <path id="Path_2291" data-name="Path 2291" d="M326.97,450.341a9.4,9.4,0,0,1-1.118-9.354,12.449,12.449,0,0,1,7.045-6.536,5.23,5.23,0,0,1,4.416-.109,4.009,4.009,0,0,1,1.816,3.631,8.206,8.206,0,0,1-1.453,3.973c-2.615,4.125-5.9,7.648-10.727,8.4" transform="translate(-264.825 -415.814)" fill="#ebebeb"/>
      <path id="Path_2292" data-name="Path 2292" d="M327.939,467.2a17.785,17.785,0,0,1-1.024-3.631,17.382,17.382,0,0,1-.378-4.111,39.028,39.028,0,0,1,.327-5.019,18.884,18.884,0,0,1,3.363-8.483,14.275,14.275,0,0,1,1.9-2.034c.508-.407.813-.61.835-.574a22.714,22.714,0,0,0-2.368,2.905,20.1,20.1,0,0,0-3.1,8.309,45.2,45.2,0,0,0-.37,4.939,19.506,19.506,0,0,0,.232,4.016A28.06,28.06,0,0,1,327.939,467.2Z" transform="translate(-267.748 -418.401)" fill="#e0e0e0"/>
      <path id="Path_2293" data-name="Path 2293" d="M301.28,420.38a10.237,10.237,0,0,1,.995,1.627c.6,1.075,1.453,2.629,2.484,4.568,2.063,3.871,4.859,9.253,7.8,15.252s5.447,11.548,7.176,15.579c.864,2.019,1.547,3.631,2,4.8a11.743,11.743,0,0,1,.639,1.8,10.769,10.769,0,0,1-.872-1.7c-.559-1.22-1.293-2.8-2.179-4.714-1.83-3.987-4.4-9.442-7.335-15.491s-5.629-11.315-7.626-15.346c-.937-1.888-1.714-3.45-2.3-4.655A11.627,11.627,0,0,1,301.28,420.38Z" transform="translate(-265.949 -412.115)" fill="#e0e0e0"/>
      <path id="Path_2294" data-name="Path 2294" d="M311.267,460.9a21.97,21.97,0,0,0-18.883-6.791c-1.75.24-3.762.973-4.205,2.694s.988,3.334,2.433,4.358a18.738,18.738,0,0,0,20.793.2" transform="translate(-267.397 -421.297)" fill="#ebebeb"/>
      <path id="Path_2295" data-name="Path 2295" d="M299.2,459.083a3.127,3.127,0,0,1,1-.109c.639-.036,1.576,0,2.731,0a24.694,24.694,0,0,1,8.817,1.9,15.484,15.484,0,0,1,4.176,2.767,15.2,15.2,0,0,1,3.733,5.672,2.9,2.9,0,0,1,.283.966c-.116.051-.617-1.293-1.852-3.2a15.9,15.9,0,0,0-2.564-3.007,16.144,16.144,0,0,0-4.038-2.622,27.8,27.8,0,0,0-8.592-2.034A33.2,33.2,0,0,1,299.2,459.083Z" transform="translate(-266.455 -422.675)" fill="#e0e0e0"/>
      <g id="freepik--Plant--inject-52" transform="translate(0 17.964)">
        <path id="Path_2298" data-name="Path 2298" d="M387.582,452.264a2.1,2.1,0,0,1-.458-.094c-.3-.073-.726-.218-1.293-.341a30.636,30.636,0,0,0-12.085-.472,29.777,29.777,0,0,0-22.384,17.917c-.24.53-.37.959-.494,1.242a3.153,3.153,0,0,1-.189.428,2.112,2.112,0,0,1,.116-.45c.094-.291.211-.726.428-1.271a26.8,26.8,0,0,1,2.179-4.445,28.95,28.95,0,0,1,27.635-13.988,26.27,26.27,0,0,1,4.859.9c.567.138.988.312,1.278.407A2.466,2.466,0,0,1,387.582,452.264Z" transform="translate(-276.792 -438.025)" fill="#263238"/>
        <path id="Path_2299" data-name="Path 2299" d="M394.255,446.385a10.807,10.807,0,0,0-2.026,10.945c.283.726.8,1.511,1.576,1.518s1.344-.879,1.612-1.663a12.7,12.7,0,0,0-.908-10.059,14.526,14.526,0,0,0,5.316,6.536c.9.6,2.179,1.1,3.021.45s.763-1.917.414-2.905a8.563,8.563,0,0,0-8.534-5.5,8.04,8.04,0,0,0,7.887-4.648c.494-1.155.545-2.789-.566-3.37a2.637,2.637,0,0,0-2.179.167,10.233,10.233,0,0,0-5.716,6.391,9.006,9.006,0,0,0-1.67-9.725,3.166,3.166,0,0,0-2.963-1.184c-1.351.392-1.8,2.1-1.765,3.508a11.787,11.787,0,0,0,4.735,9.02,6.682,6.682,0,0,0-6.21-.537c-1.307.559-2.528,2-1.946,3.29s2.28,1.351,3.631,1.1a16.7,16.7,0,0,0,6.74-2.905" transform="translate(-285.963 -433.264)" fill="#ffa8a8"/>
        <path id="Path_2300" data-name="Path 2300" d="M363.63,459.21a22.319,22.319,0,0,0,16.879,8.323,5.094,5.094,0,0,0-2.368-3.406A23.016,23.016,0,0,0,363.9,459.45" transform="translate(-280.337 -440.366)" fill="#455a64"/>
        <path id="Path_2301" data-name="Path 2301" d="M397.12,458.731a34.618,34.618,0,0,0,.69-4.205,35.928,35.928,0,0,0-.2-4.256,11.286,11.286,0,0,1-.487,8.461Z" transform="translate(-289.504 -437.919)" fill="#263238"/>
        <path id="Path_2302" data-name="Path 2302" d="M402.772,455.911a17.288,17.288,0,0,0-2.113-2.716c-1.394-1.315-2.825-2.026-2.76-2.135a7.422,7.422,0,0,1,3.021,1.859,5.716,5.716,0,0,1,1.852,2.992Z" transform="translate(-289.717 -438.135)" fill="#263238"/>
        <path id="Path_2303" data-name="Path 2303" d="M402.5,444.64a6.209,6.209,0,0,1-1.707,2.905,5.287,5.287,0,0,1-2.905,1.765,15.519,15.519,0,0,0,2.622-2.026,32.446,32.446,0,0,0,1.99-2.644Z" transform="translate(-289.715 -436.378)" fill="#263238"/>
        <path id="Path_2304" data-name="Path 2304" d="M397,448.818a2.188,2.188,0,0,1,1.781.723,1.314,1.314,0,0,1-.189,1.456,3.7,3.7,0,0,0-1.089-.6,5.48,5.48,0,0,0,0-1.583" transform="translate(-289.751 -436.807)" fill="#fafafa"/>
        <path id="Path_2305" data-name="Path 2305" d="M392.68,438.21a4.575,4.575,0,0,1,1.031,1.133,13.611,13.611,0,0,1,2.578,6.849,4.221,4.221,0,0,1,0,1.525,25.644,25.644,0,0,0-1.14-5A26.877,26.877,0,0,0,392.68,438.21Z" transform="translate(-288.289 -434.618)" fill="#263238"/>
        <path id="Path_2306" data-name="Path 2306" d="M37.759,440.82a5.81,5.81,0,0,1,4.162,1.816,10.32,10.32,0,0,1,2.3,4.016,17.693,17.693,0,0,1,0,9.253c-3.21-.937-5.36-4.169-6.34-5.876-1.554-2.7-2.731-8.526-.16-9.209" transform="translate(-33.988 -435.332)" fill="#ffa8a8"/>
        <path id="Path_2307" data-name="Path 2307" d="M53.449,462.8a4.953,4.953,0,0,1-.53-4.939,6.536,6.536,0,0,1,3.755-3.413,2.76,2.76,0,0,1,2.331,0,2.106,2.106,0,0,1,.93,1.925,4.256,4.256,0,0,1-.777,2.034c-1.4,2.179-3.159,3.995-5.708,4.358" transform="translate(-38.443 -438.993)" fill="#ffa8a8"/>
        <path id="Path_2308" data-name="Path 2308" d="M54.6,473.839a3.711,3.711,0,0,1-.174-.6c-.109-.421-.254-.973-.421-1.634a17.43,17.43,0,0,1-.726-5.534,10.705,10.705,0,0,1,1.75-5.28,7.693,7.693,0,0,1,1.118-1.278c.145-.138.276-.225.356-.29s.131-.094.138-.087a11.191,11.191,0,0,0-1.453,1.743,11.01,11.01,0,0,0-1.663,5.207,18.941,18.941,0,0,0,.617,5.483c.16.726.283,1.264.356,1.656A2.9,2.9,0,0,1,54.6,473.839Z" transform="translate(-38.656 -440.347)" fill="#263238"/>
        <path id="Path_2309" data-name="Path 2309" d="M40.1,446.82a.93.93,0,0,1,.145.225l.363.683c.32.6.763,1.453,1.3,2.527,1.082,2.143,2.535,5.12,4.067,8.447s2.847,6.406,3.769,8.585c.458,1.1.821,2,1.068,2.629.116.3.2.537.276.726a1.075,1.075,0,0,1,.087.261,1.24,1.24,0,0,1-.123-.24c-.087-.182-.189-.421-.32-.726-.276-.646-.661-1.525-1.133-2.607-.959-2.179-2.3-5.229-3.82-8.556s-2.963-6.311-4.009-8.468c-.508-1.06-.93-1.925-1.235-2.556q-.211-.421-.327-.726a2.131,2.131,0,0,1-.109-.2Z" transform="translate(-35.051 -436.975)" fill="#263238"/>
        <path id="Path_2310" data-name="Path 2310" d="M44.973,468.966a11.62,11.62,0,0,0-9.3-5.026c-.937,0-2.041.218-2.411,1.075s.254,1.816.93,2.462a9.9,9.9,0,0,0,10.836,1.736" transform="translate(-33.148 -441.661)" fill="#ffa8a8"/>
        <path id="Path_2311" data-name="Path 2311" d="M38.77,467.244a2.854,2.854,0,0,1,.588,0,4.818,4.818,0,0,1,.683,0c.261.036.566.044.9.116a10.192,10.192,0,0,1,1.075.225,11.381,11.381,0,0,1,1.206.378,12.963,12.963,0,0,1,2.578,1.322,12.346,12.346,0,0,1,2.179,1.91,11.078,11.078,0,0,1,.784.988,8.935,8.935,0,0,1,.6.93,8.8,8.8,0,0,1,.421.806,5.044,5.044,0,0,1,.269.625,2.717,2.717,0,0,1,.189.559c-.044,0-.32-.77-1.01-1.91-.182-.283-.37-.6-.61-.9a11.258,11.258,0,0,0-.792-.959,12.551,12.551,0,0,0-2.179-1.866,12.919,12.919,0,0,0-2.52-1.315,11.865,11.865,0,0,0-1.184-.392c-.378-.116-.726-.182-1.06-.254C39.605,467.281,38.77,467.288,38.77,467.244Z" transform="translate(-34.687 -442.561)" fill="#263238"/>
      </g>
    </g>
  </g>
</svg>
