<svg xmlns="http://www.w3.org/2000/svg" width="492.8" height="325.544" viewBox="0 0 492.8 325.544">
  <g id="Group_2273" data-name="Group 2273" transform="translate(-23830.069 19119)">
    <path id="Path_2171" data-name="Path 2171" d="M520.64,267.68a66.125,66.125,0,0,0-37.57-11.961,68.831,68.831,0,0,0-67.922,67.906,8.4,8.4,0,0,0,16.8,0A51.809,51.809,0,0,1,483.07,272.5a49.422,49.422,0,0,1,28.047,9.008,53.917,53.917,0,0,1,22.156,50.731l-2.637,24.023a8.4,8.4,0,0,0,7.438,9.262,9.254,9.254,0,0,0,.93.051,8.4,8.4,0,0,0,8.34-7.48l2.633-24.031h0A70.689,70.689,0,0,0,520.64,267.68Z" transform="translate(23726.469 -19236.23)" fill="#d62828"/>
    <path id="Path_2172" data-name="Path 2172" d="M482.11,286.96a38.031,38.031,0,0,0-37.985,37.981c0,.25.012.5.035.758l.273,3.035a48.245,48.245,0,0,1-6.02,28.105,8.4,8.4,0,1,0,14.645,8.23,64.967,64.967,0,0,0,8.1-37.848l-.234-2.625h0a21.18,21.18,0,0,1,42.359.348V334.6a107.988,107.988,0,0,1-4.406,31.422,54.015,54.015,0,0,1-4.141,10.367A8.4,8.4,0,1,0,509.4,384.6a70.633,70.633,0,0,0,5.562-13.691,124.994,124.994,0,0,0,5.129-36.312v-9.664a38.024,38.024,0,0,0-37.981-37.981Z" transform="translate(23726.469 -19236.23)" fill="#d62828"/>
    <path id="Path_2173" data-name="Path 2173" d="M481.72,318.01a8.4,8.4,0,0,0-8.07,8.707c0,.348,1.082,34.52-16.141,56h0a8.4,8.4,0,0,0,13.109,10.511c21.2-26.438,19.887-65.52,19.82-67.16h0a8.284,8.284,0,0,0-8.719-8.059Z" transform="translate(23726.469 -19236.23)" fill="#d62828"/>
    <path id="Path_2174" data-name="Path 2174" d="M302.92,190.62a8.4,8.4,0,0,0-2.41,11.629,41.576,41.576,0,0,1,0,45.55,8.4,8.4,0,1,0,14.039,9.234,58.357,58.357,0,0,0,0-64,8.4,8.4,0,0,0-11.629-2.418Z" transform="translate(23726.469 -19236.23)" fill="#d62828"/>
    <path id="Path_2175" data-name="Path 2175" d="M333.63,171.71a8.4,8.4,0,0,0-2.516,11.609,77.315,77.315,0,0,1,0,83.442,8.4,8.4,0,0,0,14.144,9.066,94.1,94.1,0,0,0,0-101.59,8.4,8.4,0,0,0-11.629-2.527Z" transform="translate(23726.469 -19236.23)" fill="#d62828"/>
    <path id="Path_2176" data-name="Path 2176" d="M265.5,163.64H157.98a8.4,8.4,0,0,0-8.4,8.4V278.02a8.4,8.4,0,0,0,8.4,8.4H265.5a8.4,8.4,0,0,0,8.4-8.4V172.042a8.4,8.4,0,0,0-8.4-8.4Zm-8.4,70.441H237.145V215.362H257.1Zm0-35.531H228.743a8.4,8.4,0,0,0-8.4,8.4v62.67H201.918V180.44H257.1Zm-90.719,16.8h18.73v18.426H166.386Zm18.73-34.922V198.55H166.386V180.441Zm-18.727,70.156h18.73v19.039h-18.73Zm70.758,19.039V250.882H257.1v18.727Z" transform="translate(23726.469 -19236.23)" fill="#d62828"/>
    <path id="Path_2177" data-name="Path 2177" d="M552.9,117.23H147.1a43.538,43.538,0,0,0-43.5,43.492v238.56a43.538,43.538,0,0,0,43.5,43.492H552.9a43.538,43.538,0,0,0,43.5-43.492V160.722a43.538,43.538,0,0,0-43.5-43.492Zm26.7,282.05a26.733,26.733,0,0,1-26.7,26.7H147.1a26.734,26.734,0,0,1-26.7-26.7V160.72a26.734,26.734,0,0,1,26.7-26.7H552.9a26.733,26.733,0,0,1,26.7,26.7Z" transform="translate(23726.469 -19236.23)" fill="#d62828"/>
  </g>
</svg>
