<svg xmlns="http://www.w3.org/2000/svg" width="11.459" height="21.195" viewBox="0 0 11.459 21.195">
  <path id="Path_1447" data-name="Path 1447" d="M2165.507,561.13l-2.749,0c-3.087,0-5.083,2.048-5.083,5.216v2.405h-2.764a.432.432,0,0,0-.432.432v3.485a.432.432,0,0,0,.432.431h2.764v8.793a.432.432,0,0,0,.432.432h3.605a.432.432,0,0,0,.432-.432V573.1h3.231a.432.432,0,0,0,.432-.431l0-3.485a.432.432,0,0,0-.433-.432h-3.232v-2.039c0-.98.234-1.477,1.511-1.477h1.851a.432.432,0,0,0,.432-.432v-3.236A.432.432,0,0,0,2165.507,561.13Z" transform="translate(-2154.479 -561.125)" fill="#fff"/>
</svg>
